Coordinates
version=1
nRows=38
nColumns=12
inDegrees=yes

Units are S.I. units (second, meters, Newtons, ...)
Angles are in degrees

endheader
time	SC_y	SC_z	SC_x	AC_y	AC_z	AC_x	GH_y	GH_z	GH_yy	EL_x	PS_y
       0.0              -30.55         -2.655          83.11          69.53          5.306         -13.17         -152.5         -2.126          168.1          62.01           55.6
    0.0485              -30.55         -2.649           83.1          69.53          5.306         -13.17         -152.5         -2.124          168.1          62.02           55.6
     0.097              -30.55         -2.642           83.1          69.53          5.306         -13.17         -152.5         -2.123          168.1          62.03          55.61
    0.1455              -30.55         -2.635          83.09          69.53          5.306         -13.17         -152.5         -2.122          168.1          62.04          55.61
     0.194              -30.56         -2.628          83.09          69.53          5.306         -13.17         -152.5          -2.12          168.0          62.05          55.62
    0.2425              -30.56          -2.62          83.08          69.53          5.306         -13.17         -152.5         -2.119          168.0          62.06          55.62
     0.291              -30.56         -2.612          83.07          69.53          5.306         -13.17         -152.5         -2.117          168.0          62.07          55.63
    0.3395              -30.57         -2.603          83.07          69.53          5.306         -13.17         -152.4         -2.116          168.0          62.08          55.63
     0.388              -30.57         -2.593          83.06          69.52          5.306         -13.17         -152.4         -2.114          167.9          62.09          55.64
    0.4365              -30.57         -2.582          83.05          69.52          5.305         -13.16         -152.4         -2.112          167.9          62.11          55.65
     0.485              -30.58         -2.571          83.04          69.52          5.305         -13.16         -152.4          -2.11          167.9          62.12          55.66
    0.5335              -30.58         -2.559          83.03          69.52          5.305         -13.16         -152.4         -2.107          167.9          62.13          55.67
     0.582              -30.58         -2.546          83.02          69.52          5.305         -13.16         -152.4         -2.105          167.8          62.15          55.68
    0.6305              -30.59         -2.532          83.01          69.52          5.305         -13.16         -152.4         -2.102          167.8          62.17          55.69
     0.679              -30.59         -2.517           83.0          69.51          5.305         -13.15         -152.4         -2.099          167.7          62.19           55.7
    0.7275               -30.6         -2.501          82.98          69.51          5.305         -13.15         -152.4         -2.096          167.7          62.21          55.71
     0.776               -30.6         -2.483          82.97          69.51          5.304         -13.15         -152.4         -2.093          167.7          62.23          55.72
    0.8245              -30.61         -2.463          82.95          69.51          5.304         -13.15         -152.4         -2.089          167.6          62.25          55.74
     0.873              -30.62         -2.442          82.94           69.5          5.304         -13.14         -152.3         -2.085          167.6          62.28          55.75
    0.9215              -30.62         -2.419          82.92           69.5          5.304         -13.14         -152.3         -2.081          167.5          62.31          55.77
      0.97              -30.63         -2.393           82.9           69.5          5.303         -13.13         -152.3         -2.076          167.4          62.34          55.79
     1.019              -30.64         -2.365          82.87          69.49          5.303         -13.13         -152.3          -2.07          167.4          62.38          55.81
     1.067              -30.65         -2.334          82.85          69.49          5.303         -13.13         -152.3         -2.064          167.3          62.42          55.83
     1.116              -30.66           -2.3          82.82          69.48          5.303         -13.12         -152.3         -2.058          167.2          62.46          55.86
     1.164              -30.67         -2.262          82.79          69.48          5.302         -13.11         -152.2         -2.051          167.1          62.51          55.88
     1.213              -30.69         -2.219          82.76          69.47          5.302         -13.11         -152.2         -2.042          167.0          62.56          55.91
     1.261               -30.7         -2.171          82.72          69.47          5.301          -13.1         -152.2         -2.033          166.9          62.62          55.95
      1.31              -30.72         -2.117          82.67          69.46          5.301         -13.09         -152.1         -2.023          166.7          62.69          55.99
     1.358              -30.74         -2.057          82.62          69.45            5.3         -13.08         -152.1         -2.012          166.6          62.76          56.03
     1.407              -30.76         -1.988          82.57          69.44          5.299         -13.07         -152.1         -1.998          166.4          62.85          56.08
     1.455              -30.79         -1.909           82.5          69.43          5.298         -13.06         -152.0         -1.983          166.2          62.95          56.14
     1.504              -30.82         -1.819          82.43          69.42          5.298         -13.05         -152.0         -1.966          165.9          63.06          56.21
     1.552              -30.85         -1.714          82.35           69.4          5.296         -13.03         -151.9         -1.946          165.7          63.19          56.28
     1.601              -30.89         -1.593          82.25          69.38          5.295         -13.01         -151.8         -1.923          165.4          63.34          56.37
     1.649              -30.93         -1.451          82.14          69.36          5.294         -12.99         -151.7         -1.896          165.0          63.52          56.48
     1.698              -30.99         -1.284           82.0          69.34          5.292         -12.96         -151.6         -1.864          164.6          63.73           56.6
     1.746              -31.05         -1.086          81.84          69.31           5.29         -12.93         -151.5         -1.827          164.1          63.98          56.74
     1.795              -31.13        -0.8476          81.65          69.28          5.287          -12.9         -151.4         -1.781          163.4          64.27          56.92
